<?xml version="1.0" encoding="UTF-8" standalone="no"?>
<svg
   xmlns:dc="http://purl.org/dc/elements/1.1/"
   xmlns:cc="http://creativecommons.org/ns#"
   xmlns:rdf="http://www.w3.org/1999/02/22-rdf-syntax-ns#"
   xmlns:svg="http://www.w3.org/2000/svg"
   xmlns="http://www.w3.org/2000/svg"
   xmlns:sodipodi="http://sodipodi.sourceforge.net/DTD/sodipodi-0.dtd"
   xmlns:inkscape="http://www.inkscape.org/namespaces/inkscape"
   version="1.1"
   id="svg2"
   xml:space="preserve"
   width="1122.52"
   height="793.70135"
   viewBox="0 0 1122.52 793.70135"
   sodipodi:docname="Marca Strategi.ai"><metadata
     id="metadata8"><rdf:RDF><cc:Work
         rdf:about=""><dc:format>image/svg+xml</dc:format><dc:type
           rdf:resource="http://purl.org/dc/dcmitype/StillImage" /></cc:Work></rdf:RDF></metadata><defs
     id="defs6"><linearGradient
       x1="0"
       y1="0"
       x2="1"
       y2="0"
       gradientUnits="userSpaceOnUse"
       gradientTransform="matrix(151.36053,0,0,-151.36053,162.11159,287.30069)"
       spreadMethod="pad"
       id="linearGradient28"><stop
         style="stop-opacity:1;stop-color:#f5791e"
         offset="0"
         id="stop24" /><stop
         style="stop-opacity:1;stop-color:#f14928"
         offset="1"
         id="stop26" /></linearGradient><linearGradient
       x1="0"
       y1="0"
       x2="1"
       y2="0"
       gradientUnits="userSpaceOnUse"
       gradientTransform="matrix(151.95088,0,0,-151.95088,110.55819,308.33499)"
       spreadMethod="pad"
       id="linearGradient48"><stop
         style="stop-opacity:1;stop-color:#f5791e"
         offset="0"
         id="stop44" /><stop
         style="stop-opacity:1;stop-color:#f14928"
         offset="1"
         id="stop46" /></linearGradient><clipPath
       clipPathUnits="userSpaceOnUse"
       id="clipPath58"><path
         d="M 0,595.276 H 841.89 V 0 H 0 Z"
         id="path56" /></clipPath></defs><sodipodi:namedview
     pagecolor="#ffffff"
     bordercolor="#666666"
     borderopacity="1"
     objecttolerance="10"
     gridtolerance="10"
     guidetolerance="10"
     inkscape:pageopacity="0"
     inkscape:pageshadow="2"
     inkscape:window-width="640"
     inkscape:window-height="480"
     id="namedview4" /><g
     id="g10"
     inkscape:groupmode="layer"
     inkscape:label="Marca Strategi"
     transform="matrix(1.3333333,0,0,-1.3333333,0,793.70133)"><g
       id="g12"><g
         id="g14"><g
           id="g20"><g
             id="g22"><path
               d="m 257.152,360.774 c 19.671,-14.103 32.524,-37.14 32.524,-63.136 v 0 c 0,-42.822 -34.839,-77.66 -77.66,-77.66 v 0 c -3.056,0 -6.064,0.196 -9.026,0.541 v 0 l 48.847,50.797 c 6.404,6.66 9.805,15.414 9.575,24.651 v 0 c -0.229,9.236 -4.062,17.81 -10.789,24.142 v 0 l -16.486,15.522 -16.071,-17.556 16.245,-15.292 c 2.065,-1.944 3.24,-4.575 3.311,-7.408 v 0 c 0.071,-2.835 -0.973,-5.521 -2.938,-7.564 v 0 l -16.153,-16.799 0.015,-0.006 -56.434,-61.651 c 14.747,-8.369 31.77,-13.174 49.904,-13.174 v 0 c 55.943,0 101.457,45.513 101.457,101.457 v 0 c 0,32.931 -15.782,62.236 -40.167,80.782 v 0 z"
               style="fill:url(#linearGradient28);stroke:none"
               id="path30" /></g></g></g></g><g
       id="g32"><g
         id="g34"><g
           id="g40"><g
             id="g42"><path
               d="m 110.559,297.638 c 0,-32.514 15.39,-61.482 39.25,-80.063 v 0 l 16.248,17.511 c -19.209,14.152 -31.702,36.917 -31.702,62.552 v 0 c 0,42.822 34.838,77.659 77.661,77.659 v 0 c 2.511,0 4.994,-0.13 7.445,-0.364 v 0 l -48.942,-50.949 c -6.399,-6.66 -9.794,-15.413 -9.562,-24.647 v 0 c 0.232,-9.232 4.063,-17.804 10.789,-24.134 v 0 l 16.709,-15.729 16.312,17.327 -16.709,15.73 c -2.064,1.942 -3.24,4.572 -3.312,7.405 v 0 c -0.071,2.833 0.972,5.519 2.935,7.563 v 0 l 17.558,18.278 57.27,59.804 c -14.882,8.578 -32.118,13.514 -50.493,13.514 v 0 c -55.944,0 -101.457,-45.514 -101.457,-101.457"
               style="fill:url(#linearGradient48);stroke:none"
               id="path50" /></g></g></g></g><g
       id="g52"><g
         id="g54"
         clip-path="url(#clipPath58)"><g
           id="g60"
           transform="translate(376.1667,253.173)"><path
             d="m 0,0 c 2.491,0 4.547,0.207 6.17,0.622 1.622,0.415 2.925,0.981 3.906,1.699 0.981,0.717 1.659,1.566 2.038,2.547 0.377,0.98 0.566,2.076 0.566,3.283 0,2.566 -1.207,4.7 -3.623,6.397 -2.416,1.699 -6.566,3.528 -12.453,5.492 -2.568,0.906 -5.135,1.942 -7.7,3.113 -2.566,1.169 -4.868,2.641 -6.906,4.416 -2.038,1.773 -3.699,3.924 -4.982,6.453 -1.285,2.529 -1.924,5.604 -1.924,9.228 0,3.623 0.679,6.887 2.037,9.793 1.359,2.905 3.284,5.378 5.774,7.416 2.492,2.038 5.509,3.604 9.058,4.698 3.547,1.094 7.548,1.642 12.002,1.642 5.282,0 9.85,-0.566 13.699,-1.698 3.85,-1.132 7.02,-2.378 9.511,-3.736 L 22.077,47.438 c -2.19,1.133 -4.624,2.132 -7.302,3.001 -2.68,0.867 -5.907,1.302 -9.68,1.302 -4.229,0 -7.266,-0.586 -9.115,-1.754 -1.85,-1.172 -2.774,-2.964 -2.774,-5.379 0,-1.434 0.341,-2.643 1.02,-3.623 0.678,-0.981 1.641,-1.868 2.886,-2.661 1.245,-0.792 2.679,-1.51 4.303,-2.151 1.622,-0.641 3.414,-1.302 5.378,-1.981 4.076,-1.511 7.623,-3 10.643,-4.472 3.018,-1.472 5.528,-3.19 7.529,-5.151 1.998,-1.964 3.49,-4.266 4.472,-6.907 0.98,-2.642 1.472,-5.85 1.472,-9.623 0,-7.323 -2.567,-13.003 -7.699,-17.04 -5.134,-4.039 -12.869,-6.058 -23.21,-6.058 -3.473,0 -6.605,0.209 -9.397,0.623 -2.793,0.416 -5.265,0.925 -7.415,1.529 -2.153,0.603 -4.003,1.245 -5.549,1.925 -1.548,0.679 -2.85,1.319 -3.907,1.924 l 4.982,14.039 c 2.339,-1.284 5.225,-2.434 8.662,-3.453 C -9.19,0.509 -4.981,0 0,0"
             style="fill:#303443;fill-opacity:1;fill-rule:nonzero;stroke:none"
             id="path62" /></g><g
           id="g64"
           transform="translate(412.1686,314.0852)"><path
             d="M 0,0 16.87,2.717 V -14.832 H 37.137 V -28.871 H 16.87 v -20.946 c 0,-3.549 0.622,-6.379 1.867,-8.491 1.246,-2.115 3.754,-3.17 7.53,-3.17 1.812,0 3.68,0.169 5.604,0.509 1.925,0.34 3.68,0.811 5.266,1.415 l 2.377,-13.134 c -2.037,-0.831 -4.303,-1.547 -6.794,-2.15 -2.49,-0.604 -5.547,-0.907 -9.17,-0.907 -4.605,0 -8.417,0.623 -11.436,1.869 -3.019,1.246 -5.433,2.981 -7.246,5.208 -1.81,2.226 -3.076,4.925 -3.792,8.095 C 0.357,-57.403 0,-53.893 0,-50.043 Z"
             style="fill:#303443;fill-opacity:1;fill-rule:nonzero;stroke:none"
             id="path66" /></g><g
           id="g68"
           transform="translate(492.1003,284.3083)"><path
             d="m 0,0 c -1.511,0.377 -3.284,0.773 -5.322,1.189 -2.037,0.414 -4.228,0.623 -6.567,0.623 -1.057,0 -2.32,-0.096 -3.793,-0.284 -1.471,-0.189 -2.586,-0.396 -3.339,-0.622 v -45.514 h -16.87 v 56.383 c 3.018,1.056 6.585,2.055 10.7,3 4.113,0.943 8.698,1.415 13.755,1.415 0.906,0 1.999,-0.057 3.284,-0.169 1.283,-0.114 2.565,-0.266 3.849,-0.454 1.283,-0.188 2.566,-0.415 3.85,-0.679 1.283,-0.265 2.377,-0.585 3.283,-0.962 z"
             style="fill:#303443;fill-opacity:1;fill-rule:nonzero;stroke:none"
             id="path70" /></g><g
           id="g72"
           transform="translate(518.8199,251.4743)"><path
             d="M 0,0 C 1.659,0 3.244,0.037 4.756,0.114 6.264,0.187 7.473,0.3 8.379,0.453 V 13.247 C 7.698,13.397 6.68,13.548 5.321,13.7 3.963,13.851 2.718,13.926 1.585,13.926 0,13.926 -1.491,13.831 -2.887,13.643 -4.285,13.454 -5.511,13.095 -6.566,12.567 -7.625,12.039 -8.454,11.322 -9.058,10.416 -9.663,9.511 -9.963,8.378 -9.963,7.02 c 0,-2.644 0.886,-4.472 2.66,-5.491 C -5.53,0.51 -3.096,0 0,0 m -1.358,49.364 c 4.98,0 9.131,-0.566 12.454,-1.698 3.32,-1.133 5.98,-2.756 7.981,-4.869 2,-2.113 3.415,-4.68 4.246,-7.699 0.829,-3.02 1.245,-6.379 1.245,-10.077 v -35.098 c -2.416,-0.528 -5.774,-1.151 -10.076,-1.868 -4.303,-0.716 -9.511,-1.075 -15.625,-1.075 -3.848,0 -7.342,0.339 -10.472,1.02 -3.132,0.678 -5.831,1.791 -8.095,3.338 -2.265,1.547 -4.002,3.568 -5.208,6.058 -1.209,2.491 -1.812,5.548 -1.812,9.171 0,3.471 0.698,6.415 2.095,8.831 1.395,2.415 3.263,4.34 5.604,5.774 2.338,1.433 5.019,2.472 8.039,3.114 3.018,0.64 6.151,0.963 9.396,0.963 2.189,0 4.134,-0.097 5.831,-0.284 C 5.943,24.776 7.32,24.53 8.379,24.23 v 1.584 c 0,2.868 -0.869,5.169 -2.605,6.907 -1.737,1.735 -4.755,2.604 -9.058,2.604 -2.869,0 -5.699,-0.209 -8.491,-0.623 -2.793,-0.416 -5.208,-1.001 -7.246,-1.755 l -2.151,13.586 c 0.98,0.301 2.208,0.623 3.68,0.963 1.471,0.339 3.074,0.64 4.811,0.905 1.736,0.264 3.567,0.491 5.492,0.681 1.924,0.186 3.867,0.282 5.831,0.282"
             style="fill:#303443;fill-opacity:1;fill-rule:nonzero;stroke:none"
             id="path74" /></g><g
           id="g76"
           transform="translate(551.3131,314.0852)"><path
             d="M 0,0 16.87,2.717 V -14.832 H 37.137 V -28.871 H 16.87 v -20.946 c 0,-3.549 0.623,-6.379 1.868,-8.491 1.246,-2.115 3.754,-3.17 7.53,-3.17 1.811,0 3.679,0.169 5.603,0.509 1.926,0.34 3.681,0.811 5.266,1.415 l 2.377,-13.134 c -2.037,-0.831 -4.302,-1.547 -6.793,-2.15 -2.491,-0.604 -5.548,-0.907 -9.171,-0.907 -4.605,0 -8.417,0.623 -11.435,1.869 -3.02,1.246 -5.434,2.981 -7.247,5.208 -1.81,2.226 -3.075,4.925 -3.792,8.095 C 0.358,-57.403 0,-53.893 0,-50.043 Z"
             style="fill:#303443;fill-opacity:1;fill-rule:nonzero;stroke:none"
             id="path78" /></g><g
           id="g80"
           transform="translate(629.8873,275.4768)"><path
             d="m 0,0 c -0.076,1.433 -0.321,2.831 -0.736,4.189 -0.416,1.359 -1.058,2.566 -1.924,3.623 -0.869,1.057 -1.965,1.925 -3.284,2.605 -1.321,0.679 -2.963,1.019 -4.924,1.019 -1.888,0 -3.511,-0.323 -4.869,-0.962 C -17.096,9.831 -18.228,8.982 -19.134,7.925 -20.04,6.868 -20.738,5.642 -21.229,4.246 -21.72,2.849 -22.078,1.433 -22.304,0 Z m -39.627,-6.453 c 0,5.282 0.811,9.906 2.435,13.87 1.622,3.961 3.754,7.263 6.397,9.906 2.641,2.641 5.678,4.642 9.113,6.001 3.435,1.358 6.963,2.038 10.586,2.038 8.453,0 15.133,-2.587 20.04,-7.757 4.906,-5.17 7.36,-12.775 7.36,-22.813 0,-0.982 -0.039,-2.057 -0.114,-3.226 -0.076,-1.171 -0.152,-2.208 -0.226,-3.114 h -38.268 c 0.376,-3.473 1.999,-6.227 4.868,-8.265 2.868,-2.038 6.718,-3.057 11.548,-3.057 3.095,0 6.132,0.283 9.115,0.849 2.98,0.566 5.415,1.263 7.302,2.094 l 2.265,-13.699 c -0.906,-0.453 -2.114,-0.906 -3.623,-1.358 -1.511,-0.453 -3.19,-0.85 -5.038,-1.189 -1.851,-0.34 -3.832,-0.623 -5.945,-0.849 -2.113,-0.227 -4.228,-0.34 -6.339,-0.34 -5.361,0 -10.021,0.792 -13.983,2.378 -3.963,1.585 -7.246,3.754 -9.85,6.509 -2.605,2.755 -4.53,6.019 -5.775,9.794 -1.246,3.774 -1.868,7.849 -1.868,12.228"
             style="fill:#303443;fill-opacity:1;fill-rule:nonzero;stroke:none"
             id="path82" /></g><g
           id="g84"
           transform="translate(666.7975,271.4006)"><path
             d="m 0,0 c 0,-9.436 3.81,-14.152 11.435,-14.152 1.735,0 3.357,0.227 4.869,0.68 1.508,0.452 2.791,0.979 3.848,1.585 v 26.946 c -0.831,0.15 -1.81,0.283 -2.944,0.396 -1.132,0.114 -2.453,0.17 -3.962,0.17 -4.454,0 -7.774,-1.472 -9.963,-4.416 C 1.093,8.266 0,4.529 0,0 m 37.022,-24.229 c 0,-9.736 -2.473,-16.962 -7.416,-21.681 -4.944,-4.716 -12.586,-7.077 -22.927,-7.077 -3.623,0 -7.246,0.322 -10.868,0.964 -3.623,0.641 -6.983,1.49 -10.078,2.546 l 2.945,14.153 c 2.641,-1.056 5.414,-1.886 8.321,-2.491 2.904,-0.603 6.207,-0.905 9.907,-0.905 4.829,0 8.245,1.057 10.246,3.17 1.999,2.113 3,4.829 3,8.151 v 2.151 c -1.81,-0.831 -3.679,-1.454 -5.603,-1.868 -1.926,-0.415 -4.02,-0.622 -6.284,-0.622 -8.229,0 -14.532,2.434 -18.909,7.302 -4.377,4.869 -6.566,11.68 -6.566,20.436 0,4.377 0.68,8.36 2.038,11.945 1.359,3.584 3.34,6.661 5.943,9.228 2.605,2.565 5.792,4.546 9.568,5.944 3.773,1.396 8.039,2.094 12.794,2.094 2.037,0 4.133,-0.095 6.284,-0.283 2.15,-0.19 4.282,-0.435 6.396,-0.736 2.113,-0.302 4.133,-0.661 6.058,-1.075 1.924,-0.416 3.641,-0.849 5.151,-1.302 z"
             style="fill:#303443;fill-opacity:1;fill-rule:nonzero;stroke:none"
             id="path86" /></g><path
           d="m 729.747,239.7 h -16.87 v 59.554 h 16.87 z m 1.585,76.762 c 0,-3.095 -1.001,-5.529 -3,-7.302 -2.001,-1.775 -4.36,-2.661 -7.077,-2.661 -2.717,0 -5.078,0.886 -7.076,2.661 -2.001,1.773 -3,4.207 -3,7.302 0,3.095 0.999,5.529 3,7.303 1.998,1.773 4.359,2.661 7.076,2.661 2.717,0 5.076,-0.888 7.077,-2.661 1.999,-1.774 3,-4.208 3,-7.303"
           style="fill:#303443;fill-opacity:1;fill-rule:nonzero;stroke:none"
           id="path88" /><g
           id="g90"
           transform="translate(371.9733,367.3342)"><path
             d="m 0,0 c -4.113,0 -7.084,-1.142 -8.914,-3.424 -1.831,-2.284 -2.745,-5.406 -2.745,-9.368 0,-1.924 0.225,-3.67 0.679,-5.235 0.453,-1.567 1.131,-2.916 2.038,-4.048 0.905,-1.131 2.037,-2.009 3.395,-2.631 1.359,-0.623 2.944,-0.934 4.755,-0.934 0.98,0 1.819,0.019 2.519,0.056 0.697,0.038 1.311,0.114 1.839,0.227 v 13.641 h 8.83 V -31.13 c -1.057,-0.416 -2.754,-0.86 -5.094,-1.33 -2.34,-0.472 -5.228,-0.708 -8.659,-0.708 -2.944,0 -5.615,0.453 -8.01,1.359 -2.397,0.905 -4.444,2.226 -6.142,3.961 -1.698,1.735 -3.009,3.868 -3.932,6.396 -0.926,2.528 -1.388,5.415 -1.388,8.66 0,3.283 0.51,6.188 1.528,8.717 1.02,2.528 2.415,4.669 4.189,6.424 1.773,1.755 3.857,3.085 6.254,3.99 2.396,0.906 4.953,1.359 7.671,1.359 C 0.659,7.698 2.33,7.575 3.82,7.33 5.312,7.084 6.595,6.801 7.67,6.48 8.745,6.16 9.631,5.83 10.33,5.49 11.027,5.15 11.527,4.886 11.83,4.697 L 9.282,-2.377 C 8.075,-1.736 6.687,-1.18 5.122,-0.708 3.556,-0.236 1.849,0 0,0"
             style="fill:#303443;fill-opacity:1;fill-rule:nonzero;stroke:none"
             id="path92" /></g><g
           id="g94"
           transform="translate(408.821,357.2029)"><path
             d="M 0,0 C -0.756,0.188 -1.642,0.387 -2.661,0.594 -3.679,0.801 -4.774,0.905 -5.943,0.905 -6.472,0.905 -7.104,0.857 -7.839,0.764 -8.575,0.67 -9.133,0.566 -9.509,0.453 v -22.754 h -8.433 V 5.886 c 1.507,0.528 3.291,1.028 5.347,1.5 2.057,0.471 4.35,0.707 6.878,0.707 0.453,0 0.999,-0.028 1.641,-0.085 C -3.435,7.953 -2.794,7.876 -2.151,7.782 -1.51,7.688 -0.868,7.574 -0.227,7.442 0.415,7.31 0.962,7.15 1.415,6.961 Z"
             style="fill:#303443;fill-opacity:1;fill-rule:nonzero;stroke:none"
             id="path96" /></g><g
           id="g98"
           transform="translate(439.0456,335.9211)"><path
             d="m 0,0 c -1.435,-0.416 -3.283,-0.802 -5.547,-1.16 -2.265,-0.359 -4.641,-0.538 -7.132,-0.538 -2.529,0 -4.633,0.339 -6.311,1.019 -1.679,0.679 -3.009,1.632 -3.99,2.858 -0.982,1.225 -1.679,2.688 -2.095,4.386 -0.416,1.698 -0.622,3.566 -0.622,5.603 v 16.585 h 8.433 V 13.188 c 0,-2.718 0.359,-4.68 1.076,-5.887 0.715,-1.207 2.056,-1.811 4.018,-1.811 0.604,0 1.245,0.028 1.925,0.085 0.679,0.056 1.282,0.122 1.81,0.198 v 22.98 H 0 Z"
             style="fill:#303443;fill-opacity:1;fill-rule:nonzero;stroke:none"
             id="path100" /></g><g
           id="g102"
           transform="translate(464.9118,349.5617)"><path
             d="M 0,0 C 0,2.603 -0.586,4.688 -1.755,6.254 -2.926,7.82 -4.661,8.603 -6.962,8.603 -7.718,8.603 -8.416,8.575 -9.057,8.518 -9.699,8.461 -10.227,8.395 -10.642,8.32 V -6.905 c 0.528,-0.341 1.217,-0.623 2.067,-0.849 0.848,-0.226 1.706,-0.34 2.575,-0.34 3.999,0 6,2.697 6,8.094 m 8.603,0.226 c 0,-2.302 -0.284,-4.395 -0.85,-6.283 -0.565,-1.887 -1.397,-3.508 -2.49,-4.868 -1.094,-1.358 -2.452,-2.414 -4.076,-3.169 -1.622,-0.755 -3.49,-1.132 -5.602,-1.132 -1.171,0 -2.265,0.113 -3.283,0.34 -1.02,0.226 -2.001,0.547 -2.944,0.962 v -11.207 h -8.433 v 39.224 c 0.755,0.226 1.622,0.443 2.603,0.652 0.981,0.206 2.01,0.386 3.085,0.538 1.075,0.149 2.17,0.272 3.283,0.366 1.113,0.095 2.179,0.143 3.199,0.143 2.452,0 4.64,-0.369 6.565,-1.104 C 1.584,13.952 3.206,12.914 4.527,11.574 5.848,10.235 6.856,8.603 7.556,6.679 8.253,4.754 8.603,2.603 8.603,0.226"
             style="fill:#303443;fill-opacity:1;fill-rule:nonzero;stroke:none"
             id="path104" /></g><g
           id="g106"
           transform="translate(498.1354,349.8445)"><path
             d="m 0,0 c 0,2.604 -0.519,4.65 -1.557,6.142 -1.038,1.489 -2.518,2.235 -4.442,2.235 -1.925,0 -3.416,-0.746 -4.472,-2.235 C -11.528,4.65 -12.056,2.604 -12.056,0 c 0,-2.604 0.528,-4.669 1.585,-6.198 1.056,-1.528 2.547,-2.292 4.472,-2.292 1.924,0 3.404,0.764 4.442,2.292 C -0.519,-4.669 0,-2.604 0,0 m 8.604,0 c 0,-2.339 -0.34,-4.481 -1.02,-6.424 -0.679,-1.944 -1.66,-3.604 -2.943,-4.981 -1.284,-1.378 -2.821,-2.444 -4.613,-3.198 -1.793,-0.754 -3.801,-1.131 -6.027,-1.131 -2.189,0 -4.181,0.377 -5.972,1.131 -1.792,0.754 -3.331,1.82 -4.613,3.198 -1.283,1.377 -2.283,3.037 -3,4.981 -0.718,1.943 -1.075,4.085 -1.075,6.424 0,2.339 0.368,4.471 1.104,6.396 0.735,1.924 1.754,3.565 3.056,4.925 1.302,1.358 2.849,2.414 4.642,3.169 1.791,0.755 3.744,1.132 5.858,1.132 2.15,0 4.121,-0.377 5.914,-1.132 1.792,-0.755 3.33,-1.811 4.613,-3.169 1.283,-1.36 2.283,-3.001 3,-4.925 C 8.244,4.471 8.604,2.339 8.604,0"
             style="fill:#303443;fill-opacity:1;fill-rule:nonzero;stroke:none"
             id="path108" /></g></g></g></g></svg>
