<?xml version="1.0" encoding="UTF-8" standalone="no"?>
<svg
   xmlns:dc="http://purl.org/dc/elements/1.1/"
   xmlns:cc="http://creativecommons.org/ns#"
   xmlns:rdf="http://www.w3.org/1999/02/22-rdf-syntax-ns#"
   xmlns:svg="http://www.w3.org/2000/svg"
   xmlns="http://www.w3.org/2000/svg"
   xmlns:sodipodi="http://sodipodi.sourceforge.net/DTD/sodipodi-0.dtd"
   xmlns:inkscape="http://www.inkscape.org/namespaces/inkscape"
   version="1.1"
   id="svg2"
   xml:space="preserve"
   width="1200"
   height="740"
   viewBox="0 0 1200 740"
   sodipodi:docname="Marca Strategi.ai">
    <metadata
     id="metadata8">
        <rdf:RDF>
            <cc:Work rdf:about="">
            <dc:format>image/svg+xml</dc:format>
            <dc:type rdf:resource="http://purl.org/dc/dcmitype/StillImage" />
            </cc:Work>
        </rdf:RDF>
    </metadata>
    <defs id="defs6">
        <linearGradient
           x1="0"
           y1="0"
           x2="1"
           y2="0"
           gradientUnits="userSpaceOnUse"
           gradientTransform="matrix(151.36053,0,0,-151.36053,162.11159,287.30069)"
           spreadMethod="pad"
           id="linearGradient28">
            <stop
                 style="stop-opacity:1;stop-color:#f5791e"
                 offset="0"
                 id="stop24" />
            <stop
                 style="stop-opacity:1;stop-color:#f14928"
                 offset="1"
                 id="stop26" />
        </linearGradient>
        <linearGradient
           x1="0"
           y1="0"
           x2="1"
           y2="0"
           gradientUnits="userSpaceOnUse"
           gradientTransform="matrix(151.95088,0,0,-151.95088,110.55819,308.33499)"
           spreadMethod="pad"
           id="linearGradient48">
            <stop
             style="stop-opacity:1;stop-color:#f5791e"
             offset="0"
             id="stop44" />
            <stop
             style="stop-opacity:1;stop-color:#f14928"
             offset="1"
             id="stop46" />
        </linearGradient>
    </defs>
    <g
     id="g10"
     inkscape:groupmode="layer"
     inkscape:label="Grupo Strategi"
     transform="matrix(1.3333333,0,0,-1.3333333,0,793.70133)">
        <g
       id="g12"><g
         id="g14"><g
           id="g20"><g
             id="g22"><path
               d="m 257.152,360.774 c 19.671,-14.103 32.524,-37.14 32.524,-63.136 v 0 c 0,-42.822 -34.839,-77.66 -77.66,-77.66 v 0 c -3.056,0 -6.064,0.196 -9.026,0.541 v 0 l 48.847,50.797 c 6.404,6.66 9.805,15.414 9.575,24.651 v 0 c -0.229,9.236 -4.062,17.81 -10.789,24.142 v 0 l -16.486,15.522 -16.071,-17.556 16.245,-15.292 c 2.065,-1.944 3.24,-4.575 3.311,-7.408 v 0 c 0.071,-2.835 -0.973,-5.521 -2.938,-7.564 v 0 l -16.153,-16.799 0.015,-0.006 -56.434,-61.651 c 14.747,-8.369 31.77,-13.174 49.904,-13.174 v 0 c 55.943,0 101.457,45.513 101.457,101.457 v 0 c 0,32.931 -15.782,62.236 -40.167,80.782 v 0 z"
               style="fill:url(#linearGradient28);stroke:none"
               id="path30" /></g></g></g></g>
    <g
       id="g32"><g
         id="g34"><g
           id="g40"><g
             id="g42"><path
               d="m 110.559,297.638 c 0,-32.514 15.39,-61.482 39.25,-80.063 v 0 l 16.248,17.511 c -19.209,14.152 -31.702,36.917 -31.702,62.552 v 0 c 0,42.822 34.838,77.659 77.661,77.659 v 0 c 2.511,0 4.994,-0.13 7.445,-0.364 v 0 l -48.942,-50.949 c -6.399,-6.66 -9.794,-15.413 -9.562,-24.647 v 0 c 0.232,-9.232 4.063,-17.804 10.789,-24.134 v 0 l 16.709,-15.729 16.312,17.327 -16.709,15.73 c -2.064,1.942 -3.24,4.572 -3.312,7.405 v 0 c -0.071,2.833 0.972,5.519 2.935,7.563 v 0 l 17.558,18.278 57.27,59.804 c -14.882,8.578 -32.118,13.514 -50.493,13.514 v 0 c -55.944,0 -101.457,-45.514 -101.457,-101.457"
               style="fill:url(#linearGradient48);stroke:none"
               id="path50" /></g></g></g></g>
</g>
</svg>
