<svg width="16" height="16" xmlns="http://www.w3.org/2000/svg">
 <defs>
  <linearGradient id="linearGradient28" spreadMethod="pad" y2="0.5" x2="0.99999" y1="0.5" x1="0">
   <stop stop-color="#f5791e" id="stop24" offset="0"/>
   <stop stop-color="#f14928" id="stop26" offset="1"/>
  </linearGradient>
  <linearGradient id="linearGradient48" spreadMethod="pad" y2="0.5" x2="1" y1="0.5" x1="-0.00001">
   <stop stop-color="#f5791e" id="stop44" offset="0"/>
   <stop stop-color="#f14928" id="stop46" offset="1"/>
  </linearGradient>
 </defs>
 <g>
  <title>background</title>
  <rect fill="none" id="canvas_background" height="18" width="18" y="-1" x="-1"/>
 </g>
 <g>
  <title>Layer 1</title>
  <g transform="matrix(0.060405379650911945,0,0,-0.060405379650911945,-108.69399914524384,45.48163623656607) " id="g10">
   <path fill="url(#linearGradient28)" id="path30" d="m1976.98376,683.63758c19.671,-14.103 32.524,-37.14 32.524,-63.136l0,0c0,-42.822 -34.839,-77.66 -77.66,-77.66l0,0c-3.056,0 -6.064,0.196 -9.026,0.541l0,0l48.847,50.797c6.404,6.66 9.805,15.414 9.575,24.651l0,0c-0.229,9.236 -4.062,17.81 -10.789,24.142l0,0l-16.486,15.522l-16.071,-17.556l16.245,-15.292c2.065,-1.944 3.24,-4.575 3.311,-7.408l0,0c0.071,-2.835 -0.973,-5.521 -2.938,-7.564l0,0l-16.153,-16.799l0.015,-0.006l-56.434,-61.651c14.747,-8.369 31.77,-13.174 49.904,-13.174l0,0c55.943,0 101.457,45.513 101.457,101.457l0,0c0,32.931 -15.782,62.236 -40.167,80.782l0,0l-16.154,-17.646z"/>
   <path fill="url(#linearGradient48)" id="path50" d="m1830.39076,620.50158c0,-32.514 15.39,-61.482 39.25,-80.063l0,0l16.248,17.511c-19.209,14.152 -31.702,36.917 -31.702,62.552l0,0c0,42.822 34.838,77.659 77.661,77.659l0,0c2.511,0 4.994,-0.13 7.445,-0.364l0,0l-48.942,-50.949c-6.399,-6.66 -9.794,-15.413 -9.562,-24.647l0,0c0.232,-9.232 4.063,-17.804 10.789,-24.134l0,0l16.709,-15.729l16.312,17.327l-16.709,15.73c-2.064,1.942 -3.24,4.572 -3.312,7.405l0,0c-0.071,2.833 0.972,5.519 2.935,7.563l0,0l17.558,18.278l57.27,59.804c-14.882,8.578 -32.118,13.514 -50.493,13.514l0,0c-55.944,0 -101.457,-45.514 -101.457,-101.457"/>
  </g>
 </g>
</svg>